HIERARCHY
ROOT Hips
{
 OFFSET 0.000000 0.000000 0.000000
 CHANNELS 6 Xposition Yposition Zposition Yrotation Xrotation Zrotation
 JOINT Chest
 {
  OFFSET 0.000000 9.585900 0.002600
  CHANNELS 3 Yrotation Xrotation Zrotation
  JOINT Chest2
  {
   OFFSET 0.000000 9.601200 -0.005300
   CHANNELS 3 Yrotation Xrotation Zrotation
   JOINT Chest3
   {
    OFFSET 0.000000 9.561800 0.000000
    CHANNELS 3 Yrotation Xrotation Zrotation
    JOINT Chest4
    {
     OFFSET 0.000000 9.552100 0.000000
     CHANNELS 3 Yrotation Xrotation Zrotation
     JOINT Neck
     {
      OFFSET 0.000000 14.453000 0.000000
      CHANNELS 3 Yrotation Xrotation Zrotation
      JOINT Head
      {
       OFFSET 0.000000 8.936500 -0.011300
       CHANNELS 3 Yrotation Xrotation Zrotation
       End Site
       {
        OFFSET 0.000000 17.073600 -0.006000
       }
      }
     }
     JOINT RightCollar
     {
      OFFSET -2.921100 9.558500 0.000000
      CHANNELS 3 Yrotation Xrotation Zrotation
      JOINT RightShoulder
      {
       OFFSET -13.519700 0.000000 0.000000
       CHANNELS 3 Yrotation Xrotation Zrotation
       JOINT RightElbow
       {
        OFFSET 0.000000 -29.696600 0.000000
        CHANNELS 3 Yrotation Xrotation Zrotation
        JOINT RightWrist
        {
         OFFSET 0.000000 -24.004700 0.000000
         CHANNELS 3 Yrotation Xrotation Zrotation
         End Site
         {
          OFFSET 0.000000 -17.728500 0.000000
         }
        }
       }
      }
     }
     JOINT LeftCollar
     {
      OFFSET 2.921100 9.558500 0.000000
      CHANNELS 3 Yrotation Xrotation Zrotation
      JOINT LeftShoulder
      {
       OFFSET 13.519700 0.000000 0.000000
       CHANNELS 3 Yrotation Xrotation Zrotation
       JOINT LeftElbow
       {
        OFFSET 0.000000 -29.696600 0.000000
        CHANNELS 3 Yrotation Xrotation Zrotation
        JOINT LeftWrist
        {
         OFFSET 0.000000 -24.004700 0.000000
         CHANNELS 3 Yrotation Xrotation Zrotation
         End Site
         {
          OFFSET 0.000000 -17.728500 0.000000
         }
        }
       }
      }
     }
    }
   }
  }
 }
 JOINT RightHip
 {
  OFFSET -7.771700 -0.012900 -0.001300
  CHANNELS 3 Yrotation Xrotation Zrotation
  JOINT RightKnee
  {
   OFFSET 0.000000 -40.869800 0.001200
   CHANNELS 3 Yrotation Xrotation Zrotation
   JOINT RightAnkle
   {
    OFFSET 0.000000 -39.717900 0.002100
    CHANNELS 3 Yrotation Xrotation Zrotation
    JOINT RightToe
    {
     OFFSET 0.000000 -4.965400 11.033500
     CHANNELS 3 Yrotation Xrotation Zrotation
     End Site
     {
      OFFSET 0.000000 -1.423100 5.872300
     }
    }
   }
  }
 }
 JOINT LeftHip
 {
  OFFSET 7.771700 -0.012900 -0.001300
  CHANNELS 3 Yrotation Xrotation Zrotation
  JOINT LeftKnee
  {
   OFFSET 0.000000 -40.869800 0.001200
   CHANNELS 3 Yrotation Xrotation Zrotation
   JOINT LeftAnkle
   {
    OFFSET 0.000000 -39.717900 0.002100
    CHANNELS 3 Yrotation Xrotation Zrotation
    JOINT LeftToe
    {
     OFFSET 0.000000 -4.965400 11.033500
     CHANNELS 3 Yrotation Xrotation Zrotation
     End Site
     {
      OFFSET 0.000000 -1.423100 5.872300
     }
    }
   }
  }
 }
}
MOTION
Frames: 15
Frame Time: 0.008333
0.000000 85.388000 0.000000 0.000000 -5.767877 0.000000 0.000000 11.653817 0.000000 0.000000 -5.885947 0.000000 0.000000 -0.000000 0.000000 0.000000 -0.000000 0.000000 0.000000 12.528835 0.000000 0.000000 0.711642 0.000000 0.000000 -0.000000 0.000000 0.000000 0.000000 -90.000000 0.000000 -2.309062 0.000000 0.000000 2.309062 0.000000 0.000000 -0.000000 0.000000 0.000000 -0.000000 90.000000 0.000000 -2.309062 0.000000 0.000000 2.309062 0.000000 0.000000 8.520406 0.000000 0.000000 1.905762 0.000000 -0.000000 -4.658285 0.000000 0.000000 -0.000000 0.000000 0.000000 8.520406 0.000000 0.000000 1.905762 0.000000 -0.000000 -4.658285 0.000000 0.000000 -0.000000 0.000000
-31.212462 57.421138 92.653722 178.157960 -45.855439 0.016439 -3.010835 25.458517 1.758781 -0.533616 4.177200 0.321451 -0.808637 6.643325 0.500006 -2.255986 21.037978 1.203426 -2.156928 11.039310 -5.285266 -1.835539 -15.260944 -9.220902 9.030785 -1.103407 -2.836404 33.481821 -44.167058 -26.446342 43.453283 -18.630557 2.194140 13.266809 0.876694 -40.937613 -10.321042 -7.155511 -4.755221 -17.205906 -39.886177 1.642459 -57.259111 -16.261694 19.759748 -24.101700 -0.153167 22.785085 6.444345 -26.090974 -4.056533 4.384158 77.684810 10.041919 4.613275 -5.986031 1.463138 -0.038356 0.334438 0.121172 -11.165268 -29.796718 -6.488459 41.264754 76.716252 38.868733 -24.071383 -6.746446 -3.470186 -0.381787 -0.571106 -0.115161
-31.217150 57.422621 92.659854 178.268078 -45.891411 -0.049834 -2.988452 25.453518 1.768529 -0.511923 4.173176 0.311492 -0.766913 6.641386 0.474396 -2.292680 21.060578 1.212129 -2.295566 10.844457 -5.279461 -2.092835 -15.630433 -9.156666 8.991534 -1.031059 -2.857125 33.135009 -44.045408 -26.320311 43.144742 -19.139003 2.031966 13.331244 0.255831 -40.635775 -10.231542 -7.082263 -4.769460 -16.594240 -39.403958 1.101913 -57.059169 -16.977748 20.216793 -24.216510 0.168237 22.562923 6.450334 -26.050617 -4.017405 4.017280 77.697142 9.664031 4.566903 -5.995141 1.499768 -0.008630 0.326263 0.142169 -11.238270 -29.769592 -6.474120 41.200984 76.715559 38.758496 -24.096404 -6.733726 -3.470266 -0.378884 -0.567692 -0.100619
-31.247300 57.414195 92.673351 178.323568 -45.850203 0.067308 -2.983954 25.359851 1.621752 -0.482536 4.164650 0.301105 -0.760516 6.642030 0.464256 -2.298226 21.069223 1.200688 -2.436163 10.653865 -5.264878 -2.358778 -15.992200 -9.073538 8.937117 -0.972000 -2.867190 32.791256 -43.958759 -26.175561 42.883362 -19.523383 1.932811 13.361602 -0.361529 -40.313988 -10.147196 -7.005230 -4.764749 -16.011779 -38.924530 0.569970 -56.886454 -17.657036 20.592171 -24.301983 0.480210 22.384144 6.550783 -26.151784 -4.170783 4.087216 77.801116 9.674583 4.520559 -5.916022 1.564908 -0.001756 0.192213 0.108159 -11.205193 -29.855532 -6.572866 41.165733 76.699004 38.591594 -24.148101 -6.635496 -3.388292 -0.404842 -0.590120 -0.101245
-31.260281 57.412980 92.677483 178.456527 -45.873382 0.020672 -2.980653 25.331841 1.588796 -0.477915 4.160342 0.295579 -0.753363 6.635718 0.455684 -2.280012 21.063118 1.176291 -2.576473 10.471363 -5.243923 -2.628293 -16.338878 -8.976932 8.879791 -0.925087 -2.872412 32.460842 -43.907270 -26.015736 42.674172 -19.781586 1.893267 13.359091 -0.954992 -39.985399 -10.058480 -6.926369 -4.750020 -15.476282 -38.449850 0.062606 -56.751627 -18.295370 20.887963 -24.354641 0.786092 22.249310 6.545823 -26.118835 -4.198742 4.044998 77.812056 9.616520 4.487215 -5.940354 1.588880 -0.008399 0.188577 0.114269 -11.274194 -29.861234 -6.569231 41.157532 76.704460 38.489614 -24.213575 -6.569737 -3.330369 -0.391653 -0.626077 -0.110389
-31.266512 57.410705 92.678867 178.591417 -45.890116 -0.074561 -2.958585 25.295744 1.608704 -0.473255 4.151779 0.289630 -0.746157 6.622929 0.446430 -2.263285 21.048502 1.150344 -2.714713 10.301853 -5.219574 -2.896996 -16.661102 -8.873400 8.826040 -0.886932 -2.877967 32.168329 -43.880424 -25.860010 42.502056 -19.928913 1.907903 13.333252 -1.505152 -39.644633 -9.955456 -6.844837 -4.733397 -15.004731 -37.984958 -0.412181 -56.657012 -18.891125 21.103698 -24.358525 1.071868 22.193315 6.523908 -26.095736 -4.189871 3.989424 77.823108 9.570954 4.473254 -5.961057 1.607271 -0.017445 0.184222 0.108846 -11.362002 -29.860602 -6.527764 41.139797 76.719162 38.418787 -24.249472 -6.506605 -3.298990 -0.420664 -0.695166 -0.129973
-31.277426 57.408854 92.675136 178.704418 -45.910551 -0.131913 -2.936795 25.258538 1.604418 -0.468854 4.139121 0.283394 -0.739495 6.603947 0.436772 -2.249520 21.025618 1.123465 -2.850409 10.148952 -5.193764 -3.163250 -16.952063 -8.766732 8.783196 -0.853861 -2.887837 31.944727 -43.865512 -25.737637 42.341734 -19.986377 1.968352 13.289266 -1.993527 -39.272262 -9.837124 -6.760436 -4.718621 -14.601708 -37.534467 -0.852412 -56.588445 -19.451402 21.239426 -24.302190 1.316841 22.265458 6.528436 -26.066739 -4.212710 3.958526 77.840940 9.555097 4.456496 -5.983758 1.620880 -0.021373 0.177796 0.105243 -11.411171 -29.857803 -6.511294 41.187525 76.730758 38.405475 -24.332586 -6.490607 -3.266085 -0.407760 -0.711322 -0.124934
-31.290537 57.407390 92.666222 178.805409 -45.932165 -0.171975 -2.913867 25.219283 1.590547 -0.464315 4.123139 0.277413 -0.732654 6.580039 0.427513 -2.235796 20.996125 1.098449 -2.985680 10.014579 -5.166523 -3.431076 -17.208245 -8.656022 8.758049 -0.825977 -2.903803 31.806095 -43.847849 -25.671663 42.174732 -19.979188 2.065899 13.222281 -2.387048 -38.848039 -9.712991 -6.677434 -4.706581 -14.266510 -37.100293 -1.253918 -56.521377 -19.992775 21.297229 -24.183630 1.500269 22.489305 6.542046 -26.035641 -4.246518 3.956376 77.865233 9.565727 4.435240 -6.013040 1.633089 -0.025567 0.172894 0.102343 -11.433102 -29.852907 -6.509899 41.286181 76.741394 38.437751 -24.404329 -6.466916 -3.197028 -0.389045 -0.730379 -0.137722
-31.301521 57.405281 92.653407 178.909077 -45.944383 -0.229439 -2.884281 25.169019 1.596664 -0.459245 4.104565 0.271935 -0.724984 6.552290 0.419014 -2.219772 20.961504 1.076646 -3.122766 9.900221 -5.137861 -3.704600 -17.427045 -8.540559 8.747899 -0.804333 -2.921323 31.761316 -43.816321 -25.676722 41.999844 -19.923642 2.190385 13.128621 -2.666400 -38.348391 -9.589096 -6.597918 -4.695265 -14.000409 -36.683047 -1.612741 -56.436389 -20.538280 21.282646 -24.010403 1.614401 22.870900 6.527170 -26.015392 -4.257597 3.988126 77.891524 9.596053 4.415566 -6.043842 1.641752 -0.032458 0.167562 0.099096 -11.453501 -29.850033 -6.499361 41.341558 76.761967 38.451923 -24.454592 -6.467419 -3.162161 -0.380457 -0.725656 -0.116660
-31.307480 57.411273 92.628676 179.117751 -46.018309 -0.392245 -2.969096 25.212774 1.620323 -0.403049 4.052247 0.257657 -0.716621 6.521220 0.411465 -2.201532 20.922382 1.058578 -3.261527 9.806616 -5.109039 -3.982899 -17.607068 -8.422972 8.750477 -0.788645 -2.937021 31.807725 -43.767703 -25.751260 41.835898 -19.822663 2.327174 13.023623 -2.843478 -37.765453 -9.462419 -6.522207 -4.683422 -13.805386 -36.280354 -1.930562 -56.309687 -21.105070 21.198582 -23.797028 1.677622 23.378354 6.381312 -25.853567 -4.208700 4.001025 77.833637 9.579830 4.415258 -6.222637 1.662783 -0.058018 0.310748 0.078676 -11.573401 -29.777379 -6.489799 41.391101 76.773700 38.481291 -24.469637 -6.480970 -3.161190 -0.372660 -0.716754 -0.092101
-31.317141 57.411046 92.606147 179.223497 -46.035817 -0.458105 -2.994076 25.198534 1.620287 -0.345069 3.993756 0.246781 -0.708236 6.487795 0.405113 -2.183004 20.879834 1.044524 -3.400679 9.734477 -5.081863 -4.262638 -17.746886 -8.307354 8.769950 -0.775911 -2.952743 31.921204 -43.704391 -25.877732 41.714658 -19.676004 2.465152 12.929975 -2.946356 -37.127626 -9.329335 -6.453157 -4.673476 -13.675038 -35.885116 -2.212694 -56.108680 -21.692536 21.031899 -23.526917 1.716662 23.900736 6.409628 -25.815481 -4.228684 3.952720 77.863278 9.570971 4.391408 -6.279632 1.696793 -0.055367 0.321855 0.053691 -11.571085 -29.761675 -6.466857 41.482575 76.800327 38.537098 -24.563250 -6.487939 -3.118222 -0.364198 -0.721016 -0.068263
-31.326669 57.411025 92.580211 179.324904 -46.050732 -0.518422 -2.875833 25.087004 1.663480 -0.419101 4.018892 0.255849 -0.700637 6.452092 0.399749 -2.167164 20.833748 1.033451 -3.538738 9.685357 -5.058266 -4.539840 -17.843474 -8.198388 8.809513 -0.760178 -2.970162 32.075828 -43.630927 -26.041502 41.653254 -19.490440 2.600443 12.838840 -3.002358 -36.475971 -9.185176 -6.392532 -4.670844 -13.595573 -35.491397 -2.464337 -55.811355 -22.285993 20.756698 -23.162640 1.742369 24.305513 6.397866 -25.784699 -4.239465 3.986004 77.898648 9.609116 4.381158 -6.330140 1.705572 -0.067609 0.323092 0.047335 -11.557905 -29.747428 -6.448797 41.579149 76.829176 38.604268 -24.667417 -6.494888 -3.057926 -0.344265 -0.740505 -0.078460
-31.340618 57.410874 92.551603 179.415585 -46.061972 -0.540369 -2.827788 24.998316 1.662246 -0.438610 4.011778 0.256073 -0.693660 6.413340 0.395158 -2.153543 20.783180 1.025084 -3.675630 9.660591 -5.039264 -4.813751 -17.894301 -8.098322 8.866408 -0.739069 -2.988403 32.249403 -43.550669 -26.229046 41.637247 -19.277432 2.737956 12.732002 -3.034478 -35.839107 -9.028308 -6.339971 -4.676342 -13.551880 -35.099588 -2.688282 -55.411249 -22.876821 20.342801 -22.702659 1.755700 24.554931 6.368524 -25.760482 -4.275409 4.114612 77.942266 9.708887 4.367232 -6.381547 1.711761 -0.077164 0.320307 0.041168 -11.563394 -29.744421 -6.484453 41.755066 76.838005 38.742425 -24.714502 -6.504199 -3.014980 -0.352696 -0.746365 -0.080105
-31.347570 57.409227 92.522422 179.534366 -46.058905 -0.620086 -2.806973 24.912414 1.699294 -0.433792 3.984651 0.253513 -0.686376 6.372516 0.391469 -2.138665 20.729674 1.019985 -3.813004 9.660003 -5.024009 -5.087908 -17.900015 -8.004857 8.933355 -0.715096 -3.004027 32.424321 -43.466833 -26.424244 41.643536 -19.045307 2.883071 12.616172 -3.067744 -35.227539 -8.865717 -6.296948 -4.681922 -13.528624 -34.712670 -2.882174 -54.916276 -23.477262 19.764723 -22.177219 1.754002 24.712776 6.353155 -25.747795 -4.284593 4.166538 77.982003 9.773666 4.372298 -6.429902 1.690704 -0.115788 0.312430 0.076870 -11.564051 -29.749216 -6.458840 41.778306 76.881938 38.759126 -24.810143 -6.511445 -2.988618 -0.293276 -0.754942 -0.052492
-31.354254 57.405669 92.493405 179.668828 -46.039988 -0.709157 -2.791990 24.805377 1.739589 -0.428336 3.956991 0.251482 -0.678008 6.330972 0.388698 -2.119912 20.675012 1.018323 -3.952885 9.681518 -5.011711 -5.366255 -17.864552 -7.915795 9.000909 -0.688322 -3.014406 32.586631 -43.382989 -26.613174 41.657541 -18.801202 3.032390 12.484275 -3.127625 -34.662053 -8.705694 -6.264861 -4.682598 -13.519011 -34.335980 -3.037653 -54.350841 -24.107859 19.009198 -21.611917 1.715388 24.854131 6.338379 -25.750447 -4.298690 4.192875 78.024229 9.820092 4.359147 -6.481655 1.698932 -0.134002 0.306606 0.086616 -11.580449 -29.770768 -6.436554 41.691431 76.931332 38.688654 -24.913099 -6.520427 -2.995551 -0.203539 -0.756875 -0.002607
